<?xml version="1.0" encoding="UTF-8"?>
<svg xmlns="http://www.w3.org/2000/svg" width="280" height="308" version="1.1" viewBox="0 0 280 308">
  <defs>
    <style>
      .cls-1 {
        fill: #fff;
      }

      .cls-2, .cls-3 {
        fill: #7cba41;
      }

      .cls-4 {
        display: none;
      }

      .cls-5 {
        fill: #0092d2;
      }

      .cls-3, .cls-6 {
        stroke: #7cba41;
        stroke-miterlimit: 3.9;
        stroke-width: 2px;
      }

      .cls-6 {
        fill: none;
      }
    </style>
  </defs>
  <!-- Generator: Adobe Illustrator 28.6.0, SVG Export Plug-In . SVG Version: 1.2.0 Build 709)  -->
  <g>
    <g id="Calque_1">
      <rect class="cls-1" width="280" height="308"/>
      <g>
        <path d="M237.9,238.1h2.1V39.8H40v198.4h2.4c13.1,0,24.8-5.8,32.8-14.9,8,9.1,19.5,14.9,32.6,14.9s24.5-5.6,32.5-14.6c8,9,19.6,14.6,32.6,14.6s24.5-5.8,32.4-14.7c7.9,8.9,19.6,14.6,32.6,14.6h0ZM122.5,178.6c4.2,4,6.8,9.6,6.8,15.8,0,12-9.7,21.7-21.7,21.7s-21.7-9.7-21.7-21.7v-46.9l36.6,31.1ZM136,161.9c-11.3-9.4-50.1-43.4-50.1-43.4v-27.1l101.6,87.2c4.2,4,6.8,9.6,6.8,15.8,0,12-9.7,21.7-21.7,21.7s-21.7-9.7-21.7-21.7c0,0,2.3-18.1-14.9-32.5ZM202.7,163.2c-13.5-11.4-116.8-99.8-116.8-99.8v-21h151.5v173.8c-12,0-21.4-9.7-21.4-21.7.1-.1,1.3-18.9-13.3-31.3ZM42.6,42.3h21.7v152.1c0,12-9.7,21.7-21.7,21.7V42.3Z"/>
        <g>
          <path d="M241.6,255.4c-.4-5-4.6-5.9-8.2-5.9-5.7,0-7.3,3.3-7.3,6,0,6.7,11.3,4.4,11.3,7.4s-.6,1.8-3,1.8-4-1.1-4-2.6h-4.9c.1,4.8,4.6,6.2,8.7,6.2s8-.9,8-6.1-11.4-4.5-11.4-7.3.3-1.7,2.9-1.7,3,1.2,3.2,2.3h4.7Z"/>
          <path d="M44.4,245.2h-4.8v4.8h-2.5v3.3h2.5v10.8c0,2.3.8,3.8,4.9,3.8h.6c.8,0,1.5,0,2.3-.1v-3.5c-.3,0-.7.1-1,.1-1.9,0-2-.4-2-1.4v-9.7h3v-3.3h-3v-4.8Z"/>
          <path d="M49.7,267.8h4.8v-9.3c0-2,.7-4.2,4.4-4.2s1,0,1.4.1v-4.7c-.3,0-.6-.1-.9-.1-2.9,0-4,1.7-5,3.5h0v-3.1h-4.6s0,17.8,0,17.8Z"/>
          <path d="M79.9,258.9c0-6.4-4.4-9.4-9.3-9.4s-9.3,2.9-9.3,9.4,4.4,9.4,9.3,9.4c4.9,0,9.3-3,9.3-9.4ZM75,258.9c0,2.3-.7,5.4-4.4,5.4s-4.4-3.1-4.4-5.4.7-5.4,4.4-5.4c3.7-.1,4.4,3.1,4.4,5.4Z"/>
          <path d="M82,250v17.8h4.8v-17.8h-4.8ZM86.8,243.5h-4.8v4.3h4.8v-4.3Z"/>
          <path d="M104.6,255.4c-.4-5-4.6-5.9-8.2-5.9-5.7,0-7.3,3.3-7.3,6,0,6.7,11.3,4.4,11.3,7.4s-.6,1.8-3,1.8-4-1.1-4-2.6h-4.9c0,4.8,4.6,6.2,8.7,6.2s8-.9,8-6.1-11.4-4.5-11.4-7.3.3-1.7,2.9-1.7,3,1.2,3.2,2.3h4.7Z"/>
          <path d="M124.1,256.2h-14.7v4.3h14.7v-4.3Z"/>
          <path d="M128.9,267.8h4.8v-9.3c0-2,.7-4.2,4.4-4.2s1,0,1.4.1v-4.7c-.3,0-.6-.1-.9-.1-2.9,0-4,1.7-5,3.5h0v-3.1h-4.6v17.8h0Z"/>
          <path d="M141.7,250v17.8h4.8v-17.8h-4.8ZM146.5,243.5h-4.8v4.3h4.8v-4.3Z"/>
          <path d="M167,250h-5.1l-3.9,13.1h0l-3.8-13.1h-5.3l6.5,17.8h5l6.6-17.8Z"/>
          <path d="M169.4,250v17.8h4.8v-17.8h-4.8ZM174.2,243.5h-4.8v4.3h4.8v-4.3Z"/>
          <path d="M188.4,262.5c-.4,1.3-1.7,1.9-3.1,1.9-3.9,0-4.1-3-4.3-4.4h12.5v-.8c0-8.1-4.9-9.8-8.5-9.8-8,0-8.7,6.9-8.7,9,0,7.3,3.9,9.7,9,9.7s6.7-1.4,8-5.7h-4.9ZM181.2,257.1c.3-2.3,1.5-3.7,3.7-3.7s3.4.9,3.7,3.7h-7.4Z"/>
          <path d="M195.7,267.8h4.8v-9.3c0-2,.7-4.2,4.4-4.2s.9,0,1.4.1v-4.7c-.3,0-.6-.1-.9-.1-2.9,0-4,1.7-5,3.5h-.1v-3.1h-4.6v17.8h0Z"/>
          <path d="M219,262.5c-.4,1.3-1.7,1.9-3.1,1.9-3.9,0-4.1-3-4.3-4.4h12.5v-.8c0-8.1-4.9-9.8-8.5-9.8-8,0-8.7,6.9-8.7,9,0,7.3,3.9,9.7,9,9.7s6.7-1.4,8-5.7h-4.9ZM211.8,257.1c.3-2.3,1.5-3.7,3.7-3.7s3.4.9,3.7,3.7h-7.4Z"/>
          <path d="M189.5,243.5h-9.5v4.3h9.5v-4.3Z"/>
        </g>
      </g>
      <g id="Layer_2" class="cls-4">
        <g>
          <path class="cls-5" d="M246.1,312.8v154.6c0,12-9.3,21.8-21.3,21.8h-3v21.9h2.4c13.1,0,24.8-5.8,32.8-14.9,8,9.1,19.5,14.9,32.6,14.9s24.5-5.6,32.5-14.6c8,9,19.6,14.6,32.6,14.6s24.4-5.8,32.4-14.7c8,9,19.6,14.7,32.6,14.7h2.1v-21.9h-2.7c-12,0-21.2-9.8-21.2-21.8,0,0,1.3-18.8-13.4-31.2-13.5-11.4-116.7-99.8-116.7-99.8v-23.6h-21.7Z"/>
          <path class="cls-3" d="M317.8,434.9c-11.3-9.4-50.1-43.4-50.1-43.4v-27.1l101.6,87.2c4.2,4,6.8,9.6,6.8,15.8,0,12-9.7,21.7-21.7,21.7s-21.7-9.7-21.7-21.7c.1,0,2.3-18.2-14.9-32.5Z"/>
          <path class="cls-3" d="M304.3,451.6c4.2,4,6.8,9.6,6.8,15.8,0,12-9.7,21.7-21.7,21.7s-21.7-9.7-21.7-21.7v-46.9l36.6,31.1Z"/>
          <path class="cls-2" d="M246.1,312.8h-24.2v176.4h3c12,0,21.3-9.8,21.3-21.8v-154.6Z"/>
          <path class="cls-2" d="M267.8,312.8v23.6s103.2,88.4,116.7,99.8c14.7,12.4,13.4,31.2,13.4,31.2,0,12,9.2,21.8,21.2,21.8h2.7v-176.4h-154Z"/>
          <path class="cls-6" d="M267.8,312.8v23.6s103.2,88.4,116.7,99.8c14.7,12.4,13.4,31.2,13.4,31.2,0,12,9.2,21.8,21.2,21.8h2.7"/>
          <path class="cls-6" d="M221.9,489.2h2.5c12,0,21.7-9.8,21.7-21.8v-154.6"/>
          <g>
            <path class="cls-5" d="M423.4,528.3c-.4-5-4.6-5.9-8.2-5.9-5.7,0-7.3,3.3-7.3,6,0,6.7,11.3,4.4,11.3,7.4s-.6,1.8-3,1.8-4-1.1-4-2.6h-4.9c.1,4.8,4.6,6.2,8.7,6.2s7.9-.9,7.9-6.1-11.4-4.5-11.4-7.3.3-1.7,2.9-1.7,3,1.2,3.2,2.3h4.8Z"/>
            <path class="cls-5" d="M226.3,518h-4.8v4.8h-2.5v3.3h2.5v10.9c0,2.3.8,3.8,4.9,3.8h.6c.8,0,1.5,0,2.2,0v-3.5c-.3,0-.7,0-1,0-1.9,0-2-.4-2-1.4v-9.7h3v-3.3h-3v-4.9h.1Z"/>
            <path class="cls-5" d="M231.6,540.7h4.8v-9.3c0-2,.7-4.3,4.4-4.3s1,0,1.4,0v-4.7c-.3,0-.6,0-.9,0-2.9,0-4,1.7-5,3.5h-.1v-3.1h-4.6v17.9h0Z"/>
            <path class="cls-5" d="M261.7,531.8c0-6.4-4.4-9.4-9.3-9.4s-9.3,2.9-9.3,9.4,4.4,9.4,9.3,9.4c4.9-.1,9.3-3,9.3-9.4ZM256.8,531.8c0,2.3-.7,5.4-4.4,5.4s-4.4-3.1-4.4-5.4.7-5.4,4.4-5.4c3.7,0,4.4,3.1,4.4,5.4Z"/>
            <path class="cls-5" d="M263.8,522.9v17.8h4.8v-17.8h-4.8ZM268.6,516.4h-4.8v4.3h4.8v-4.3Z"/>
            <path class="cls-5" d="M286.4,528.3c-.4-5-4.6-5.9-8.2-5.9-5.7,0-7.3,3.3-7.3,6,0,6.7,11.3,4.4,11.3,7.4s-.6,1.8-3,1.8-4-1.1-4-2.6h-4.9c.1,4.8,4.6,6.2,8.7,6.2s8-.9,8-6.1-11.4-4.5-11.4-7.3.3-1.7,2.9-1.7,3,1.2,3.2,2.3h4.7Z"/>
            <path class="cls-5" d="M306,529.1h-14.7v4.3h14.7v-4.3Z"/>
            <path class="cls-5" d="M310.7,540.7h4.8v-9.3c0-2,.7-4.3,4.4-4.3s1,0,1.4,0v-4.7c-.3,0-.6,0-.9,0-2.9,0-4,1.7-5,3.5h-.1v-3.1h-4.6v17.9h0Z"/>
            <path class="cls-5" d="M323.6,522.9v17.8h4.8v-17.8h-4.8ZM328.4,516.4h-4.8v4.3h4.8v-4.3Z"/>
            <path class="cls-5" d="M348.8,522.9h-5.1l-3.9,13.1h-.1l-3.8-13.1h-5.3l6.5,17.8h5l6.7-17.8Z"/>
            <path class="cls-5" d="M351.2,522.9v17.8h4.8v-17.8h-4.8ZM356,516.4h-4.8v4.3h4.8v-4.3Z"/>
            <path class="cls-5" d="M370.3,535.4c-.4,1.3-1.7,1.9-3.1,1.9-3.9,0-4.1-3-4.3-4.3h12.5v-.8c0-8.1-5-9.8-8.5-9.8-8,0-8.7,6.9-8.7,9,0,7.3,3.9,9.7,9,9.7s6.7-1.4,8-5.7h-4.9ZM363.1,530c.3-2.3,1.5-3.7,3.7-3.7s3.4.9,3.7,3.7h-7.4Z"/>
            <path class="cls-5" d="M377.5,540.7h4.8v-9.3c0-2,.7-4.3,4.4-4.3s1,0,1.4,0v-4.7c-.3,0-.6,0-.9,0-2.9,0-4,1.7-5,3.5h-.1v-3.1h-4.6v17.9h0Z"/>
            <path class="cls-5" d="M400.8,535.4c-.4,1.3-1.7,1.9-3.1,1.9-3.9,0-4.1-3-4.3-4.3h12.5v-.8c0-8.1-5-9.8-8.5-9.8-8,0-8.7,6.9-8.7,9,0,7.3,3.9,9.7,9,9.7s6.7-1.4,8-5.7h-4.9ZM393.6,530c.3-2.3,1.5-3.7,3.7-3.7s3.4.9,3.7,3.7h-7.4Z"/>
            <path class="cls-5" d="M371.4,516.4h-9.5v4.3h9.5v-4.3Z"/>
          </g>
        </g>
      </g>
    </g>
  </g>
</svg>